HIERARCHY
ROOT root
{
	OFFSET 0.000000 0.000000 0.000000
	CHANNELS 6 Xposition Yposition Zposition Zrotation Yrotation Xrotation
	JOINT lhip
	{
		OFFSET 0.058581 -0.082280 -0.017664
		CHANNELS 3 Zrotation Yrotation Xrotation
		JOINT lknee
		{
			OFFSET 0.043451 -0.386469 0.008037
			CHANNELS 3 Zrotation Yrotation Xrotation
			JOINT lankle
			{
				OFFSET -0.014790 -0.426874 -0.037428
				CHANNELS 3 Zrotation Yrotation Xrotation
				JOINT ltoe
				{
					OFFSET 0.041054 -0.060286 0.122042
					CHANNELS 3 Zrotation Yrotation Xrotation
					End Site
					{
						OFFSET 0.000000 0.000000 0.000000
					}
				}
			}
		}
	}
	JOINT rhip
	{
		OFFSET -0.060310 -0.090513 -0.013543
		CHANNELS 3 Zrotation Yrotation Xrotation
		JOINT rknee
		{
			OFFSET -0.043257 -0.383688 -0.004843
			CHANNELS 3 Zrotation Yrotation Xrotation
			JOINT rankle
			{
				OFFSET 0.019056 -0.420046 -0.034562
				CHANNELS 3 Zrotation Yrotation Xrotation
				JOINT rtoe
				{
					OFFSET -0.034840 -0.062106 0.130323
					CHANNELS 3 Zrotation Yrotation Xrotation
					End Site
					{
						OFFSET 0.000000 0.000000 0.000000
					}
				}
			}
		}
	}
	JOINT lowerback
	{
		OFFSET 0.004439 0.124404 -0.038385
		CHANNELS 3 Zrotation Yrotation Xrotation
		JOINT upperback
		{
			OFFSET 0.004488 0.137956 0.026820
			CHANNELS 3 Zrotation Yrotation Xrotation
			JOINT chest
			{
				OFFSET -0.002265 0.056032 0.002855
				CHANNELS 3 Zrotation Yrotation Xrotation
				JOINT lowerneck
				{
					OFFSET -0.013390 0.211636 -0.033468
					CHANNELS 3 Zrotation Yrotation Xrotation
					JOINT upperneck
					{
						OFFSET 0.010113 0.088937 0.050410
						CHANNELS 3 Zrotation Yrotation Xrotation
						End Site
						{
							OFFSET 0.000000 0.000000 0.000000
						}
					}
				}
				JOINT lclavicle
				{
					OFFSET 0.071702 0.114000 -0.018898
					CHANNELS 3 Zrotation Yrotation Xrotation
					JOINT lshoulder
					{
						OFFSET 0.122921 0.045205 -0.019046
						CHANNELS 3 Zrotation Yrotation Xrotation
						JOINT lelbow
						{
							OFFSET 0.255332 -0.015649 -0.022946
							CHANNELS 3 Zrotation Yrotation Xrotation
							JOINT lwrist
							{
								OFFSET 0.265709 0.012698 -0.007375
								CHANNELS 3 Zrotation Yrotation Xrotation
								End Site
								{
									OFFSET 0.000000 0.000000 0.000000
								}
							}
						}
					}
				}
				JOINT rclavicle
				{
					OFFSET -0.082954 0.112472 -0.023707
					CHANNELS 3 Zrotation Yrotation Xrotation
					JOINT rshoulder
					{
						OFFSET -0.113228 0.046853 -0.008472
						CHANNELS 3 Zrotation Yrotation Xrotation
						JOINT relbow
						{
							OFFSET -0.260127 -0.014369 -0.031269
							CHANNELS 3 Zrotation Yrotation Xrotation
							JOINT rwrist
							{
								OFFSET -0.269108 0.006794 -0.006027
								CHANNELS 3 Zrotation Yrotation Xrotation
								End Site
								{
									OFFSET 0.000000 0.000000 0.000000
								}
							}
						}
					}
				}
			}
		}
	}
}
MOTION
Frames: 13
Frame Time: 0.033333
1.823412 0.311996 1.016607 -97.593228 -1.856668 92.451436 3.820722 -8.259825 -22.865365 -1.995295 -3.171377 13.292433 -1.130213 14.296681 -1.513284 0.000000 -0.000000 0.000000 -2.677605 -4.040841 7.716946 -0.453697 2.024724 26.380958 7.228237 -6.512225 8.171616 0.000000 -0.000000 0.000000 -5.460032 13.555959 1.361274 1.258995 3.727609 5.511807 -1.279269 5.535168 2.068272 4.552375 -6.309486 5.202362 3.028838 -14.634225 8.890646 -8.798607 17.764505 7.492024 -43.097202 18.326322 11.901778 -110.004937 -62.378139 148.177584 21.427884 -15.824303 5.022778 14.581299 -0.851424 -3.741327 70.803162 8.945985 22.383397 142.122367 75.928195 172.790294 -25.749018 14.241540 -4.264248 
1.756107 0.306337 1.013284 -96.873609 -2.593277 92.657907 1.925006 -8.592434 -21.988920 -2.173246 -2.151233 11.688538 -1.147099 13.672378 0.251006 0.000000 -0.000000 0.000000 -4.029818 -4.050826 7.489176 -2.166544 -0.168632 31.662783 8.015185 -7.011991 14.352767 0.000000 -0.000000 0.000000 -6.473587 13.414889 -0.221526 1.850483 3.666752 6.025544 -1.420168 5.640033 1.252162 4.108829 -6.837353 7.834460 3.355587 -14.455077 7.989555 -8.015684 18.314835 8.682148 -42.633678 18.520790 12.166285 -113.036996 -61.829992 151.026491 21.014151 -15.673860 5.489612 14.803659 -2.064737 -3.277338 69.718020 7.679540 22.410093 140.475098 74.491781 171.404077 -25.283596 14.270507 -4.704527 
1.689727 0.299808 1.000564 -96.435784 -3.062800 92.048378 -0.108177 -8.966794 -20.083400 -3.445084 -1.105836 15.408454 2.894673 12.795936 4.053697 0.000000 -0.000000 0.000000 -4.796348 -3.424227 5.923258 -3.260246 -0.401321 39.950887 6.684754 -9.195831 19.669910 0.000000 -0.000000 0.000000 -6.303676 12.316986 0.117918 1.859381 4.099236 4.950687 -1.579716 5.564063 1.636451 3.088251 -7.878898 8.704815 2.814230 -12.735049 8.942735 -8.215312 18.969222 8.838074 -42.232332 17.749175 12.410088 -114.949168 -61.093969 152.574646 20.756671 -15.601956 6.037571 14.919156 -3.667049 -3.232338 68.756715 4.932986 22.714971 138.387497 74.332529 168.728863 -24.026314 14.769484 -4.068434 
1.610820 0.291570 0.974764 -95.060041 -3.468614 90.489880 -3.497261 -7.912367 -17.469441 -4.898534 -1.786158 24.570495 8.811235 15.048774 -7.114578 0.000000 -0.000000 0.000000 -5.563340 -3.015431 2.801693 -4.269979 -0.485318 52.350906 5.491879 -13.418142 16.555317 0.000000 -0.000000 0.000000 -5.409443 10.027907 3.152291 1.467818 4.132227 1.662453 -1.658040 4.986018 3.822870 2.654800 -8.535025 6.497609 1.281920 -10.327249 11.280415 -10.811400 19.466354 6.695713 -42.117184 15.449916 12.821859 -114.226836 -61.144514 151.651195 21.944022 -16.493957 6.163871 16.127216 -6.272756 -4.524540 66.051063 -0.317760 22.792913 131.966011 75.468893 161.114707 -23.371230 14.698601 -3.072801 
1.566819 0.288088 0.958969 -94.059131 -3.634848 89.366783 -5.369127 -7.419096 -15.031688 -5.438613 -3.432432 28.559383 10.568510 17.274579 -13.195759 0.000000 -0.000000 0.000000 -5.916914 -2.676957 0.155243 -4.438850 -0.359071 59.579501 5.675813 -14.088392 11.018790 0.000000 -0.000000 0.000000 -4.786014 8.516297 5.739820 1.099288 3.865656 -0.077982 -1.778457 4.360493 5.297534 3.122482 -8.038334 4.267289 0.508336 -9.499636 12.323536 -13.923091 19.120307 4.166046 -42.688318 13.216412 13.503533 -111.462837 -62.899026 148.693267 22.510953 -16.984712 6.914402 17.943266 -7.829590 -5.433204 63.505104 -3.836443 22.173935 123.345472 77.357312 151.911454 -23.521421 14.658154 -2.246016 
1.512183 0.285502 0.944309 -93.273098 -3.911713 88.604136 -6.907849 -7.125788 -10.968431 -6.295108 -4.896276 30.314981 11.594329 19.586259 -18.373888 0.000000 -0.000000 0.000000 -6.228854 -1.385069 -5.577450 -4.168476 -0.526838 68.039097 6.016162 -14.775279 4.133845 0.000000 -0.000000 0.000000 -4.597892 6.821387 7.800475 0.879530 3.699274 -0.196978 -1.948812 3.165938 6.251052 3.828315 -7.014019 2.334099 0.070171 -8.527585 12.569783 -18.844934 17.126924 1.713906 -45.257754 8.325472 14.218602 -103.661384 -67.558058 141.289868 22.501108 -16.724833 9.487168 20.778426 -9.497662 -5.481858 60.495608 -7.904193 20.569298 93.220397 81.662791 121.996385 -23.460236 13.365785 -0.596527 
1.460894 0.283470 0.940928 -92.170300 -3.649742 89.167474 -7.160223 -5.979198 -7.506049 -6.869004 -6.367278 29.748043 11.096025 19.754828 -20.865350 0.000000 -0.000000 0.000000 -5.752641 -0.382888 -13.588179 -4.357126 -1.422881 73.551924 5.507422 -16.081581 -2.070892 0.000000 -0.000000 0.000000 -4.111423 4.527420 8.602737 0.632585 3.255454 -0.176961 -2.249864 1.687366 6.370560 3.888520 -6.167762 2.320846 0.416127 -7.050155 12.897290 -22.428011 14.512940 1.033070 -49.357475 2.409330 14.493772 -93.407393 -72.357339 132.440011 21.771754 -16.184173 12.066678 22.480372 -10.656688 -4.411596 58.946792 -11.246963 18.028763 31.670872 79.595553 61.589341 -23.156590 11.577429 2.525582 
1.410522 0.281740 0.947106 -90.063029 -2.703554 89.890033 -6.562106 -4.271406 -3.763738 -6.821285 -9.338950 28.095827 9.487375 18.571011 -21.200294 0.000000 -0.000000 0.000000 -4.780808 -0.340103 -21.090240 -5.241184 -2.987477 74.502739 5.020641 -16.523703 -6.953252 0.000000 -0.000000 0.000000 -2.821017 1.110399 9.733970 0.344519 2.119143 -0.913055 -2.361160 -0.094297 6.353802 2.943591 -5.511746 3.063394 0.952288 -4.827276 13.454350 -23.539607 12.721722 0.913457 -54.622754 -2.725211 14.823195 -88.978083 -75.465511 129.098099 21.816092 -15.811117 10.787811 21.870372 -11.585159 -3.410986 58.337696 -14.096602 15.517257 12.152219 71.791442 41.950510 -23.013454 10.314949 3.181924 
1.359323 0.281881 0.959407 -87.817430 -1.366509 90.884982 -5.112811 -2.995577 -0.103849 -6.190266 -12.105023 25.687257 6.929751 17.012521 -19.264479 0.000000 -0.000000 0.000000 -3.809653 -0.000809 -27.250325 -5.691745 -5.407969 70.665796 4.875524 -15.948416 -9.762146 0.000000 -0.000000 0.000000 -1.475375 -2.521232 10.462571 0.647164 0.630769 -1.023924 -2.017285 -1.966971 5.816034 1.351281 -4.689114 3.956493 0.929896 -2.239974 12.766074 -23.902792 11.200667 1.145440 -58.464868 -6.668560 15.568970 -94.253040 -77.576815 135.107898 22.335855 -15.795244 9.310567 20.604416 -12.486567 -2.608433 56.430454 -16.668739 13.428887 7.787846 66.278950 37.306231 -21.158645 9.994634 1.656713 
1.293601 0.284669 0.978091 -86.059511 0.305861 93.208490 -2.531635 -1.685702 3.278105 -5.281140 -14.175150 21.894404 3.290577 15.249242 -14.121909 0.000000 -0.000000 0.000000 -2.961163 1.532259 -33.599770 -5.031982 -8.838606 60.350861 5.090192 -15.110180 -10.374070 0.000000 -0.000000 0.000000 -0.070110 -6.329506 9.761581 1.543292 -0.923451 -0.361517 -1.280989 -3.892709 4.635644 -0.665600 -3.207006 5.378000 0.641059 0.513805 10.620651 -23.458929 9.306294 1.769210 -59.883652 -10.317031 16.636555 -106.806801 -78.548956 149.261192 22.885701 -16.512360 8.738686 18.782907 -13.375824 -1.101017 53.372814 -19.412784 11.686679 5.727228 61.912456 36.428554 -19.854126 9.833551 -0.423730 
1.238941 0.287409 0.991586 -85.360967 1.385374 95.174933 -0.543954 -0.654910 5.440394 -4.704906 -14.674831 19.122071 0.727544 14.307497 -8.406910 0.000000 -0.000000 0.000000 -2.341143 2.751263 -36.839302 -3.259102 -10.509915 49.521268 5.229312 -14.002115 -9.213899 0.000000 -0.000000 0.000000 0.921448 -8.620064 8.733510 2.241546 -1.995600 0.312857 -0.774712 -5.050281 3.787795 -1.891113 -1.821220 6.474285 0.562022 2.520460 8.750008 -22.230252 8.335069 2.316368 -59.121565 -12.387601 17.039244 -116.971556 -77.763481 160.023836 22.746689 -17.170532 8.555278 17.033283 -14.139664 0.200749 51.783712 -21.152367 10.772398 4.429715 59.677495 35.676273 -19.204357 9.174107 -1.700212 
1.180926 0.290107 1.000076 -84.895339 2.088889 96.501067 1.135947 0.572881 7.760975 -4.242477 -14.461544 17.261048 -1.513307 13.498736 -1.823150 0.000000 -0.000000 0.000000 -1.625536 3.434970 -37.948859 -1.280466 -11.215724 39.711803 5.598894 -12.027221 -7.327425 0.000000 -0.000000 0.000000 1.588966 -10.235064 7.621768 2.767113 -3.093943 1.428905 -0.369026 -5.881861 2.986811 -3.022540 -0.543786 7.979967 0.748333 3.914374 6.576811 -20.568845 7.511668 3.073419 -57.604523 -13.586554 16.793841 -122.776739 -76.363033 165.695164 22.356398 -17.881892 8.600357 15.217511 -14.871005 1.773367 50.960598 -22.707926 9.433919 4.530842 59.029844 35.509299 -18.581450 8.839927 -3.529267 
1.119612 0.293807 1.000797 -84.625359 2.337683 97.283927 2.459757 1.763507 9.521744 -4.236971 -13.943825 18.045069 -3.453626 12.789863 4.422799 0.000000 -0.000000 0.000000 -0.696009 3.354264 -37.986433 -0.173001 -12.091584 34.722764 5.601641 -10.726347 -5.620931 0.000000 -0.000000 0.000000 1.818703 -11.142820 6.051320 3.064868 -4.125010 2.985522 -0.193329 -6.458084 2.524964 -3.802616 0.565952 9.461093 0.875929 4.751737 4.880553 -18.923666 6.963313 3.495952 -55.912026 -13.919292 16.270745 -123.956924 -75.162524 166.299493 21.780976 -18.385934 8.327980 13.696101 -15.691068 3.132067 50.437350 -24.294513 8.318203 6.042845 59.709247 37.138017 -17.580815 8.980271 -4.947276 
